<svg width="1149" height="928" viewBox="0 0 1149 928" fill="none" xmlns="http://www.w3.org/2000/svg">
<path d="M721.91 456.02V430.055V533.918V456.02Z" fill="white"/>
<path d="M721.91 626.273V928H617.535V626.273H721.91Z" fill="#FFA63E"/>
<path d="M1044.67 176.111C1044.65 176.989 1044.68 175.218 1044.67 176.111V176.111Z" fill="#FFA63E"/>
<path fill-rule="evenodd" clip-rule="evenodd" d="M416.313 626.273V928H523.06V626.273H416.313Z" fill="white"/>
<path d="M168.423 521.205L30.8382 724.603H150.632L278.728 533.918H416.313L721.91 533.918V430.055L553.305 430.055L416.313 432.219H257.379C213.099 432.219 177.516 416.964 150.632 386.455C123.747 355.945 110.305 316.113 110.305 266.959C110.305 216.957 123.747 177.125 150.632 147.463C178.307 116.953 213.889 101.699 257.379 101.699H416.313V337.224H523.06V0H257.379C205.982 0 160.911 11.4411 122.166 34.3233C83.4208 56.358 53.3735 87.2913 32.0241 127.123C10.6747 166.955 0 213.567 0 266.959C0 329.673 15.0237 383.489 45.071 428.405C75.1183 473.322 116.236 504.256 168.423 521.205Z" fill="white"/>
<path d="M617.535 0H757.493L847.634 300.011C856.332 327.131 864.24 354.25 871.356 381.37C878.472 407.642 883.612 427.982 886.775 442.389C890.729 427.982 895.868 407.642 902.194 381.37C908.52 354.25 915.636 326.707 923.543 298.74L1008.94 0H1095.53H1148.9L1149 724.603H1044.63L1044.52 591.123V464V317.808V193.863C1044.52 188.622 1044.6 180.937 1044.67 176.111L941.335 533.918H828.657L721.904 170.26C721.904 191.434 721.905 213.312 721.907 235.72L721.907 237.39V238.288C721.909 262.154 721.91 286.612 721.91 311.452V337.224H617.535V0Z" fill="#FFA63E"/>
</svg>
